<mxfile host="app.diagrams.net" modified="2023-07-24T20:46:47.070Z" agent="Mozilla/5.0 (Windows NT 10.0; Win64; x64) AppleWebKit/537.36 (KHTML, like Gecko) Chrome/115.0.0.0 Safari/537.36 Edg/115.0.1901.183" etag="as8tKaZv6GKYMlg53TMj" version="21.6.5" type="google" pages="5">
  <diagram name="home" id="5VGYBNXBtywQHJc0UUx_">
    <mxGraphModel grid="1" page="1" gridSize="10" guides="1" tooltips="1" connect="1" arrows="1" fold="1" pageScale="1" pageWidth="827" pageHeight="1169" math="0" shadow="0">
      <root>
        <mxCell id="0" />
        <mxCell id="1" parent="0" />
        <mxCell id="0e-ruHnEYZia-G61zrD3-8" value="" style="rounded=1;whiteSpace=wrap;html=1;" vertex="1" parent="1">
          <mxGeometry x="120" y="120" width="60" height="20" as="geometry" />
        </mxCell>
        <mxCell id="0e-ruHnEYZia-G61zrD3-9" value="" style="rounded=1;whiteSpace=wrap;html=1;" vertex="1" parent="1">
          <mxGeometry x="200" y="100" width="60" height="20" as="geometry" />
        </mxCell>
        <mxCell id="0e-ruHnEYZia-G61zrD3-10" value="" style="rounded=1;whiteSpace=wrap;html=1;" vertex="1" parent="1">
          <mxGeometry x="280" y="80" width="60" height="20" as="geometry" />
        </mxCell>
        <mxCell id="0e-ruHnEYZia-G61zrD3-11" value="" style="rounded=1;whiteSpace=wrap;html=1;" vertex="1" parent="1">
          <mxGeometry x="650" y="120" width="60" height="20" as="geometry" />
        </mxCell>
        <mxCell id="0e-ruHnEYZia-G61zrD3-12" value="" style="rounded=1;whiteSpace=wrap;html=1;" vertex="1" parent="1">
          <mxGeometry x="570" y="100" width="60" height="20" as="geometry" />
        </mxCell>
        <mxCell id="0e-ruHnEYZia-G61zrD3-13" value="" style="rounded=1;whiteSpace=wrap;html=1;" vertex="1" parent="1">
          <mxGeometry x="490" y="80" width="60" height="20" as="geometry" />
        </mxCell>
        <mxCell id="0e-ruHnEYZia-G61zrD3-16" value="" style="rounded=1;whiteSpace=wrap;html=1;" vertex="1" parent="1">
          <mxGeometry x="140" y="20" width="20" height="20" as="geometry" />
        </mxCell>
        <mxCell id="0e-ruHnEYZia-G61zrD3-17" value="" style="rounded=1;whiteSpace=wrap;html=1;" vertex="1" parent="1">
          <mxGeometry x="40" y="20" width="20" height="20" as="geometry" />
        </mxCell>
        <mxCell id="0e-ruHnEYZia-G61zrD3-21" value="" style="ellipse;whiteSpace=wrap;html=1;aspect=fixed;" vertex="1" parent="1">
          <mxGeometry x="367" y="31.380000000000003" width="94" height="94" as="geometry" />
        </mxCell>
        <mxCell id="0e-ruHnEYZia-G61zrD3-22" style="edgeStyle=orthogonalEdgeStyle;rounded=0;orthogonalLoop=1;jettySize=auto;html=1;exitX=0.5;exitY=1;exitDx=0;exitDy=0;" edge="1" parent="1" source="0e-ruHnEYZia-G61zrD3-9" target="0e-ruHnEYZia-G61zrD3-9">
          <mxGeometry relative="1" as="geometry" />
        </mxCell>
        <mxCell id="0e-ruHnEYZia-G61zrD3-24" value="" style="rounded=1;whiteSpace=wrap;html=1;" vertex="1" parent="1">
          <mxGeometry x="90" y="20" width="20" height="20" as="geometry" />
        </mxCell>
        <mxCell id="0e-ruHnEYZia-G61zrD3-31" value="" style="line;strokeWidth=4;html=1;perimeter=backbonePerimeter;points=[];outlineConnect=0;rotation=-90;" vertex="1" parent="1">
          <mxGeometry x="139.92" y="484.88" width="548.15" height="10" as="geometry" />
        </mxCell>
        <mxCell id="0e-ruHnEYZia-G61zrD3-32" value="" style="line;strokeWidth=4;html=1;perimeter=backbonePerimeter;points=[];outlineConnect=0;" vertex="1" parent="1">
          <mxGeometry x="425" y="285" width="60" height="10" as="geometry" />
        </mxCell>
        <mxCell id="0e-ruHnEYZia-G61zrD3-33" value="" style="shape=waypoint;sketch=0;fillStyle=solid;size=6;pointerEvents=1;points=[];fillColor=none;resizable=0;rotatable=0;perimeter=centerPerimeter;snapToPoint=1;strokeWidth=3;" vertex="1" parent="1">
          <mxGeometry x="480" y="280" width="20" height="20" as="geometry" />
        </mxCell>
        <mxCell id="0e-ruHnEYZia-G61zrD3-42" value="" style="shape=waypoint;sketch=0;fillStyle=solid;size=6;pointerEvents=1;points=[];fillColor=none;resizable=0;rotatable=0;perimeter=centerPerimeter;snapToPoint=1;strokeWidth=3;" vertex="1" parent="1">
          <mxGeometry x="480" y="540" width="20" height="20" as="geometry" />
        </mxCell>
        <mxCell id="0e-ruHnEYZia-G61zrD3-43" value="" style="shape=waypoint;sketch=0;fillStyle=solid;size=6;pointerEvents=1;points=[];fillColor=none;resizable=0;rotatable=0;perimeter=centerPerimeter;snapToPoint=1;strokeWidth=3;" vertex="1" parent="1">
          <mxGeometry x="340" y="410" width="20" height="20" as="geometry" />
        </mxCell>
        <mxCell id="0e-ruHnEYZia-G61zrD3-46" value="" style="line;strokeWidth=4;html=1;perimeter=backbonePerimeter;points=[];outlineConnect=0;" vertex="1" parent="1">
          <mxGeometry x="354" y="415" width="60" height="10" as="geometry" />
        </mxCell>
        <mxCell id="0e-ruHnEYZia-G61zrD3-47" value="" style="line;strokeWidth=4;html=1;perimeter=backbonePerimeter;points=[];outlineConnect=0;" vertex="1" parent="1">
          <mxGeometry x="354" y="680" width="60" height="10" as="geometry" />
        </mxCell>
        <mxCell id="0e-ruHnEYZia-G61zrD3-48" value="" style="line;strokeWidth=4;html=1;perimeter=backbonePerimeter;points=[];outlineConnect=0;" vertex="1" parent="1">
          <mxGeometry x="425" y="537.5" width="60" height="25" as="geometry" />
        </mxCell>
        <mxCell id="0e-ruHnEYZia-G61zrD3-49" value="" style="shape=waypoint;sketch=0;fillStyle=solid;size=6;pointerEvents=1;points=[];fillColor=none;resizable=0;rotatable=0;perimeter=centerPerimeter;snapToPoint=1;strokeWidth=3;" vertex="1" parent="1">
          <mxGeometry x="340" y="675" width="20" height="20" as="geometry" />
        </mxCell>
        <mxCell id="0e-ruHnEYZia-G61zrD3-50" value="" style="ellipse;whiteSpace=wrap;html=1;aspect=fixed;" vertex="1" parent="1">
          <mxGeometry x="510" y="230" width="120" height="120" as="geometry" />
        </mxCell>
        <mxCell id="0e-ruHnEYZia-G61zrD3-51" value="" style="ellipse;whiteSpace=wrap;html=1;aspect=fixed;" vertex="1" parent="1">
          <mxGeometry x="510" y="490" width="120" height="120" as="geometry" />
        </mxCell>
        <mxCell id="0e-ruHnEYZia-G61zrD3-53" value="" style="ellipse;whiteSpace=wrap;html=1;aspect=fixed;" vertex="1" parent="1">
          <mxGeometry x="184" y="360" width="120" height="120" as="geometry" />
        </mxCell>
        <mxCell id="0e-ruHnEYZia-G61zrD3-55" value="" style="ellipse;whiteSpace=wrap;html=1;aspect=fixed;" vertex="1" parent="1">
          <mxGeometry x="190" y="625" width="120" height="120" as="geometry" />
        </mxCell>
        <mxCell id="0e-ruHnEYZia-G61zrD3-57" value="" style="rounded=1;whiteSpace=wrap;html=1;" vertex="1" parent="1">
          <mxGeometry x="44" y="245" width="310" height="90" as="geometry" />
        </mxCell>
        <mxCell id="0e-ruHnEYZia-G61zrD3-58" value="" style="rounded=1;whiteSpace=wrap;html=1;" vertex="1" parent="1">
          <mxGeometry x="461" y="375" width="310" height="90" as="geometry" />
        </mxCell>
        <mxCell id="0e-ruHnEYZia-G61zrD3-59" value="" style="rounded=1;whiteSpace=wrap;html=1;" vertex="1" parent="1">
          <mxGeometry x="44" y="505" width="310" height="90" as="geometry" />
        </mxCell>
        <mxCell id="0e-ruHnEYZia-G61zrD3-60" value="" style="rounded=1;whiteSpace=wrap;html=1;" vertex="1" parent="1">
          <mxGeometry x="461" y="640" width="310" height="90" as="geometry" />
        </mxCell>
        <mxCell id="0e-ruHnEYZia-G61zrD3-69" value="" style="ellipse;shape=doubleEllipse;whiteSpace=wrap;html=1;aspect=fixed;" vertex="1" parent="1">
          <mxGeometry x="740" y="10.01" width="30" height="30" as="geometry" />
        </mxCell>
        <mxCell id="0e-ruHnEYZia-G61zrD3-70" value="" style="sketch=0;outlineConnect=0;fontColor=#232F3E;gradientColor=none;fillColor=#000000;strokeColor=none;dashed=0;verticalLabelPosition=bottom;verticalAlign=top;align=center;html=1;fontSize=12;fontStyle=0;aspect=fixed;pointerEvents=1;shape=mxgraph.aws4.user;" vertex="1" parent="1">
          <mxGeometry x="748" y="17.38" width="14" height="14" as="geometry" />
        </mxCell>
        <mxCell id="0e-ruHnEYZia-G61zrD3-71" value="" style="ellipse;shape=doubleEllipse;whiteSpace=wrap;html=1;aspect=fixed;" vertex="1" parent="1">
          <mxGeometry x="780" y="10" width="30" height="30" as="geometry" />
        </mxCell>
        <mxCell id="0e-ruHnEYZia-G61zrD3-72" value="" style="html=1;verticalLabelPosition=bottom;align=center;labelBackgroundColor=#ffffff;verticalAlign=top;strokeWidth=1;shadow=0;dashed=0;shape=mxgraph.ios7.icons.shopping_cart;" vertex="1" parent="1">
          <mxGeometry x="788.75" y="18.63" width="12.5" height="12.75" as="geometry" />
        </mxCell>
        <mxCell id="0e-ruHnEYZia-G61zrD3-73" value="&lt;pre&gt;&lt;font style=&quot;font-size: 6px;&quot;&gt;VENTA SOLO PARA MAYORES DE 18 AÑOS/Ley&amp;nbsp;&lt;font style=&quot;font-size: 6px;&quot;&gt;&amp;nbsp;24.788/&lt;/font&gt;ARTICULO 1°&lt;/font&gt;&lt;/pre&gt;" style="text;html=1;strokeColor=none;fillColor=none;align=center;verticalAlign=middle;whiteSpace=wrap;rounded=0;" vertex="1" parent="1">
          <mxGeometry x="299.5" y="15" width="231" height="8.62" as="geometry" />
        </mxCell>
        <mxCell id="0e-ruHnEYZia-G61zrD3-74" value="" style="rounded=1;whiteSpace=wrap;html=1;" vertex="1" parent="1">
          <mxGeometry x="260" y="150" width="300" height="40" as="geometry" />
        </mxCell>
        <mxCell id="0e-ruHnEYZia-G61zrD3-75" value="&lt;font style=&quot;font-size: 15px;&quot; data-font-src=&quot;https://fonts.googleapis.com/css?family=IMPACT&quot; face=&quot;IMPACT&quot;&gt;CERVEZAS MAS VENDIDAS&lt;/font&gt;" style="text;html=1;strokeColor=none;fillColor=none;align=center;verticalAlign=middle;whiteSpace=wrap;rounded=0;" vertex="1" parent="1">
          <mxGeometry x="264" y="150" width="300" height="40" as="geometry" />
        </mxCell>
        <mxCell id="0e-ruHnEYZia-G61zrD3-76" value="Cerveza.jpg&lt;br&gt;" style="text;html=1;strokeColor=none;fillColor=none;align=center;verticalAlign=middle;whiteSpace=wrap;rounded=0;" vertex="1" parent="1">
          <mxGeometry x="535" y="275" width="70" height="30" as="geometry" />
        </mxCell>
        <mxCell id="0e-ruHnEYZia-G61zrD3-77" value="Cerveza.jpg&lt;br&gt;" style="text;html=1;strokeColor=none;fillColor=none;align=center;verticalAlign=middle;whiteSpace=wrap;rounded=0;" vertex="1" parent="1">
          <mxGeometry x="209" y="405" width="70" height="30" as="geometry" />
        </mxCell>
        <mxCell id="0e-ruHnEYZia-G61zrD3-78" value="Cerveza.jpg&lt;br&gt;" style="text;html=1;strokeColor=none;fillColor=none;align=center;verticalAlign=middle;whiteSpace=wrap;rounded=0;" vertex="1" parent="1">
          <mxGeometry x="535" y="535" width="70" height="30" as="geometry" />
        </mxCell>
        <mxCell id="0e-ruHnEYZia-G61zrD3-79" value="Cerveza.jpg&lt;br&gt;" style="text;html=1;strokeColor=none;fillColor=none;align=center;verticalAlign=middle;whiteSpace=wrap;rounded=0;" vertex="1" parent="1">
          <mxGeometry x="215" y="670" width="70" height="30" as="geometry" />
        </mxCell>
        <mxCell id="0e-ruHnEYZia-G61zrD3-80" value="Descripcion de la cerveza" style="text;html=1;strokeColor=none;fillColor=none;align=center;verticalAlign=middle;whiteSpace=wrap;rounded=0;" vertex="1" parent="1">
          <mxGeometry x="84" y="275" width="230" height="30" as="geometry" />
        </mxCell>
        <mxCell id="0e-ruHnEYZia-G61zrD3-81" value="Descripcion de la cerveza" style="text;html=1;strokeColor=none;fillColor=none;align=center;verticalAlign=middle;whiteSpace=wrap;rounded=0;" vertex="1" parent="1">
          <mxGeometry x="485" y="405" width="230" height="30" as="geometry" />
        </mxCell>
        <mxCell id="0e-ruHnEYZia-G61zrD3-82" value="Descripcion de la cerveza" style="text;html=1;strokeColor=none;fillColor=none;align=center;verticalAlign=middle;whiteSpace=wrap;rounded=0;" vertex="1" parent="1">
          <mxGeometry x="100" y="535" width="230" height="30" as="geometry" />
        </mxCell>
        <mxCell id="0e-ruHnEYZia-G61zrD3-83" value="Descripcion de la cerveza" style="text;html=1;strokeColor=none;fillColor=none;align=center;verticalAlign=middle;whiteSpace=wrap;rounded=0;" vertex="1" parent="1">
          <mxGeometry x="485" y="670" width="230" height="30" as="geometry" />
        </mxCell>
        <mxCell id="WlOlDgsRH5CJ9yelDNU_-3" value="" style="rounded=1;whiteSpace=wrap;html=1;" vertex="1" parent="1">
          <mxGeometry x="50" y="840" width="140" height="200" as="geometry" />
        </mxCell>
        <mxCell id="WlOlDgsRH5CJ9yelDNU_-4" value="" style="rounded=1;whiteSpace=wrap;html=1;" vertex="1" parent="1">
          <mxGeometry x="640" y="840" width="140" height="200" as="geometry" />
        </mxCell>
        <mxCell id="WlOlDgsRH5CJ9yelDNU_-5" value="" style="rounded=1;whiteSpace=wrap;html=1;" vertex="1" parent="1">
          <mxGeometry x="250" y="840" width="140" height="200" as="geometry" />
        </mxCell>
        <mxCell id="WlOlDgsRH5CJ9yelDNU_-6" value="" style="rounded=1;whiteSpace=wrap;html=1;" vertex="1" parent="1">
          <mxGeometry x="450" y="840" width="140" height="200" as="geometry" />
        </mxCell>
        <mxCell id="WlOlDgsRH5CJ9yelDNU_-8" value="" style="html=1;shadow=0;dashed=0;align=center;verticalAlign=middle;shape=mxgraph.arrows2.jumpInArrow;dy=15;dx=38;arrowHead=55;rotation=0;" vertex="1" parent="1">
          <mxGeometry x="788.75" y="925" width="12.5" height="30" as="geometry" />
        </mxCell>
        <mxCell id="WlOlDgsRH5CJ9yelDNU_-9" value="" style="html=1;shadow=0;dashed=0;align=center;verticalAlign=middle;shape=mxgraph.arrows2.jumpInArrow;dy=15;dx=38;arrowHead=55;rotation=0;direction=west;" vertex="1" parent="1">
          <mxGeometry x="27.5" y="925" width="12.5" height="30" as="geometry" />
        </mxCell>
        <mxCell id="WlOlDgsRH5CJ9yelDNU_-10" value="" style="rounded=1;whiteSpace=wrap;html=1;" vertex="1" parent="1">
          <mxGeometry x="223.43" y="790" width="366.57" height="30" as="geometry" />
        </mxCell>
        <mxCell id="WlOlDgsRH5CJ9yelDNU_-11" value="&lt;span style=&quot;font-size: 16px;&quot;&gt;&lt;font data-font-src=&quot;https://fonts.googleapis.com/css?family=IMPACT&quot; face=&quot;IMPACT&quot;&gt;NUESTROS PRODUCTOS&lt;/font&gt;&lt;/span&gt;" style="text;html=1;strokeColor=none;fillColor=none;align=center;verticalAlign=middle;whiteSpace=wrap;rounded=0;" vertex="1" parent="1">
          <mxGeometry x="308" y="790" width="213" height="30" as="geometry" />
        </mxCell>
        <mxCell id="WlOlDgsRH5CJ9yelDNU_-13" value="" style="shape=crossbar;whiteSpace=wrap;html=1;rounded=1;strokeWidth=4;" vertex="1" parent="1">
          <mxGeometry x="40" y="760" width="740" height="20" as="geometry" />
        </mxCell>
        <mxCell id="WlOlDgsRH5CJ9yelDNU_-14" value="" style="shape=crossbar;whiteSpace=wrap;html=1;rounded=1;strokeWidth=4;" vertex="1" parent="1">
          <mxGeometry x="40" y="200" width="740" height="20" as="geometry" />
        </mxCell>
        <mxCell id="WlOlDgsRH5CJ9yelDNU_-15" value="" style="line;strokeWidth=4;html=1;perimeter=backbonePerimeter;points=[];outlineConnect=0;rotation=-90;" vertex="1" parent="1">
          <mxGeometry x="134.07" y="484.08" width="560" height="10" as="geometry" />
        </mxCell>
        <mxCell id="WlOlDgsRH5CJ9yelDNU_-16" value="" style="line;strokeWidth=4;html=1;perimeter=backbonePerimeter;points=[];outlineConnect=0;rotation=-90;" vertex="1" parent="1">
          <mxGeometry x="148.51" y="489.63" width="551.1" height="10" as="geometry" />
        </mxCell>
        <mxCell id="WlOlDgsRH5CJ9yelDNU_-17" value="" style="line;strokeWidth=4;html=1;perimeter=backbonePerimeter;points=[];outlineConnect=0;rotation=-90;" vertex="1" parent="1">
          <mxGeometry x="147.03" y="481.91" width="554.07" height="10" as="geometry" />
        </mxCell>
        <mxCell id="WlOlDgsRH5CJ9yelDNU_-19" value="" style="shape=partialRectangle;whiteSpace=wrap;html=1;bottom=0;right=0;fillColor=none;strokeWidth=2;direction=west;rotation=-180;" vertex="1" parent="1">
          <mxGeometry x="9.07" y="1070" width="120.93" height="60" as="geometry" />
        </mxCell>
        <mxCell id="WlOlDgsRH5CJ9yelDNU_-20" value="" style="shape=partialRectangle;whiteSpace=wrap;html=1;bottom=0;right=0;fillColor=none;strokeWidth=2;direction=west;" vertex="1" parent="1">
          <mxGeometry x="699.0699999999999" y="1100" width="120" height="60" as="geometry" />
        </mxCell>
        <mxCell id="WlOlDgsRH5CJ9yelDNU_-21" value="" style="endArrow=none;dashed=1;html=1;dashPattern=1 3;strokeWidth=2;rounded=0;" edge="1" parent="1" source="WlOlDgsRH5CJ9yelDNU_-34">
          <mxGeometry width="50" height="50" relative="1" as="geometry">
            <mxPoint x="10" y="1160" as="sourcePoint" />
            <mxPoint x="690" y="1160" as="targetPoint" />
          </mxGeometry>
        </mxCell>
        <mxCell id="WlOlDgsRH5CJ9yelDNU_-22" value="" style="endArrow=none;dashed=1;html=1;dashPattern=1 3;strokeWidth=2;rounded=0;" edge="1" parent="1">
          <mxGeometry width="50" height="50" relative="1" as="geometry">
            <mxPoint x="139.07" y="1070" as="sourcePoint" />
            <mxPoint x="819.0699999999999" y="1070" as="targetPoint" />
          </mxGeometry>
        </mxCell>
        <mxCell id="WlOlDgsRH5CJ9yelDNU_-23" value="" style="shape=mxgraph.signs.food.cans_and_bottles;html=1;pointerEvents=1;fillColor=#000000;strokeColor=none;verticalLabelPosition=bottom;verticalAlign=top;align=center;" vertex="1" parent="1">
          <mxGeometry x="7.5" y="1140" width="20" height="20" as="geometry" />
        </mxCell>
        <mxCell id="WlOlDgsRH5CJ9yelDNU_-25" value="" style="shape=mxgraph.signs.food.cans_and_bottles;html=1;pointerEvents=1;fillColor=#000000;strokeColor=none;verticalLabelPosition=bottom;verticalAlign=top;align=center;direction=west;" vertex="1" parent="1">
          <mxGeometry x="799.0699999999999" y="1070" width="20" height="20" as="geometry" />
        </mxCell>
        <mxCell id="WlOlDgsRH5CJ9yelDNU_-26" value="" style="rounded=1;whiteSpace=wrap;html=1;" vertex="1" parent="1">
          <mxGeometry x="50" y="1080" width="70" height="70" as="geometry" />
        </mxCell>
        <mxCell id="WlOlDgsRH5CJ9yelDNU_-30" value="Datos de contacto entre otros" style="text;html=1;strokeColor=none;fillColor=none;align=center;verticalAlign=middle;whiteSpace=wrap;rounded=0;" vertex="1" parent="1">
          <mxGeometry x="55.000000000000014" y="1100" width="60" height="30" as="geometry" />
        </mxCell>
        <mxCell id="WlOlDgsRH5CJ9yelDNU_-31" value="" style="html=1;verticalLabelPosition=bottom;align=center;labelBackgroundColor=#ffffff;verticalAlign=top;strokeWidth=2;shadow=0;dashed=0;shape=mxgraph.ios7.icons.map;" vertex="1" parent="1">
          <mxGeometry x="714.07" y="1090" width="55.93" height="50" as="geometry" />
        </mxCell>
        <mxCell id="WlOlDgsRH5CJ9yelDNU_-32" value="" style="rounded=1;whiteSpace=wrap;html=1;" vertex="1" parent="1">
          <mxGeometry x="579.0699999999999" y="1090" width="120" height="60" as="geometry" />
        </mxCell>
        <mxCell id="WlOlDgsRH5CJ9yelDNU_-33" value="Ubicacion&lt;br&gt;Region&lt;br&gt;Coordenadas del local" style="text;html=1;strokeColor=none;fillColor=none;align=center;verticalAlign=middle;whiteSpace=wrap;rounded=0;" vertex="1" parent="1">
          <mxGeometry x="605" y="1105" width="60" height="30" as="geometry" />
        </mxCell>
        <mxCell id="WlOlDgsRH5CJ9yelDNU_-36" value="" style="rounded=1;whiteSpace=wrap;html=1;" vertex="1" parent="1">
          <mxGeometry x="134.07" y="1080" width="75.93" height="70" as="geometry" />
        </mxCell>
        <mxCell id="WlOlDgsRH5CJ9yelDNU_-37" value="Permiso e informacion legal" style="text;html=1;strokeColor=none;fillColor=none;align=center;verticalAlign=middle;whiteSpace=wrap;rounded=0;" vertex="1" parent="1">
          <mxGeometry x="129" y="1099" width="86" height="40" as="geometry" />
        </mxCell>
        <mxCell id="WlOlDgsRH5CJ9yelDNU_-38" value="" style="endArrow=none;dashed=1;html=1;dashPattern=1 3;strokeWidth=2;rounded=0;" edge="1" parent="1" target="WlOlDgsRH5CJ9yelDNU_-34">
          <mxGeometry width="50" height="50" relative="1" as="geometry">
            <mxPoint x="10" y="1160" as="sourcePoint" />
            <mxPoint x="690" y="1160" as="targetPoint" />
          </mxGeometry>
        </mxCell>
        <mxCell id="WlOlDgsRH5CJ9yelDNU_-34" value="" style="rounded=1;whiteSpace=wrap;html=1;" vertex="1" parent="1">
          <mxGeometry x="299.5" y="1150" width="230" height="15" as="geometry" />
        </mxCell>
        <mxCell id="WlOlDgsRH5CJ9yelDNU_-39" value="" style="rounded=1;whiteSpace=wrap;html=1;" vertex="1" parent="1">
          <mxGeometry x="70" y="865" width="100" height="105" as="geometry" />
        </mxCell>
        <mxCell id="WlOlDgsRH5CJ9yelDNU_-40" value="" style="rounded=1;whiteSpace=wrap;html=1;" vertex="1" parent="1">
          <mxGeometry x="270" y="865" width="100" height="105" as="geometry" />
        </mxCell>
        <mxCell id="WlOlDgsRH5CJ9yelDNU_-41" value="" style="rounded=1;whiteSpace=wrap;html=1;" vertex="1" parent="1">
          <mxGeometry x="470" y="865" width="100" height="105" as="geometry" />
        </mxCell>
        <mxCell id="WlOlDgsRH5CJ9yelDNU_-42" value="" style="rounded=1;whiteSpace=wrap;html=1;" vertex="1" parent="1">
          <mxGeometry x="662" y="865" width="100" height="105" as="geometry" />
        </mxCell>
        <mxCell id="WlOlDgsRH5CJ9yelDNU_-43" value="&lt;h1 style=&quot;font-size: 14px;&quot;&gt;&lt;font style=&quot;font-size: 14px;&quot;&gt;Cerveza &quot;.....&quot;&lt;/font&gt;&lt;/h1&gt;&lt;p style=&quot;font-size: 14px;&quot;&gt;&lt;font style=&quot;font-size: 14px;&quot;&gt;Descripcion de la cerveza&lt;/font&gt;&lt;/p&gt;" style="text;html=1;strokeColor=none;fillColor=none;spacing=5;spacingTop=-20;whiteSpace=wrap;overflow=hidden;rounded=0;" vertex="1" parent="1">
          <mxGeometry x="60" y="970" width="135" height="60" as="geometry" />
        </mxCell>
        <mxCell id="WlOlDgsRH5CJ9yelDNU_-44" value="&lt;h1 style=&quot;font-size: 14px;&quot;&gt;&lt;font style=&quot;font-size: 14px;&quot;&gt;Cerveza &quot;.....&quot;&lt;/font&gt;&lt;/h1&gt;&lt;p style=&quot;font-size: 14px;&quot;&gt;&lt;font style=&quot;font-size: 14px;&quot;&gt;Descripcion de la cerveza&lt;/font&gt;&lt;/p&gt;" style="text;html=1;strokeColor=none;fillColor=none;spacing=5;spacingTop=-20;whiteSpace=wrap;overflow=hidden;rounded=0;" vertex="1" parent="1">
          <mxGeometry x="264" y="970" width="135" height="60" as="geometry" />
        </mxCell>
        <mxCell id="WlOlDgsRH5CJ9yelDNU_-45" value="&lt;h1 style=&quot;font-size: 14px;&quot;&gt;&lt;font style=&quot;font-size: 14px;&quot;&gt;Cerveza &quot;.....&quot;&lt;/font&gt;&lt;/h1&gt;&lt;p style=&quot;font-size: 14px;&quot;&gt;&lt;font style=&quot;font-size: 14px;&quot;&gt;Descripcion de la cerveza&lt;/font&gt;&lt;/p&gt;" style="text;html=1;strokeColor=none;fillColor=none;spacing=5;spacingTop=-20;whiteSpace=wrap;overflow=hidden;rounded=0;" vertex="1" parent="1">
          <mxGeometry x="470" y="970" width="135" height="60" as="geometry" />
        </mxCell>
        <mxCell id="WlOlDgsRH5CJ9yelDNU_-46" value="&lt;h1 style=&quot;font-size: 14px;&quot;&gt;&lt;font style=&quot;font-size: 14px;&quot;&gt;Cerveza &quot;.....&quot;&lt;/font&gt;&lt;/h1&gt;&lt;p style=&quot;font-size: 14px;&quot;&gt;&lt;font style=&quot;font-size: 14px;&quot;&gt;Descripcion de la cerveza&lt;/font&gt;&lt;/p&gt;" style="text;html=1;strokeColor=none;fillColor=none;spacing=5;spacingTop=-20;whiteSpace=wrap;overflow=hidden;rounded=0;" vertex="1" parent="1">
          <mxGeometry x="653.75" y="970" width="135" height="60" as="geometry" />
        </mxCell>
        <mxCell id="WlOlDgsRH5CJ9yelDNU_-47" value="Cerveza.jpg&lt;br&gt;" style="text;html=1;strokeColor=none;fillColor=none;align=center;verticalAlign=middle;whiteSpace=wrap;rounded=0;" vertex="1" parent="1">
          <mxGeometry x="85" y="902.5" width="70" height="30" as="geometry" />
        </mxCell>
        <mxCell id="WlOlDgsRH5CJ9yelDNU_-48" value="Cerveza.jpg&lt;br&gt;" style="text;html=1;strokeColor=none;fillColor=none;align=center;verticalAlign=middle;whiteSpace=wrap;rounded=0;" vertex="1" parent="1">
          <mxGeometry x="290" y="902.5" width="70" height="30" as="geometry" />
        </mxCell>
        <mxCell id="WlOlDgsRH5CJ9yelDNU_-49" value="Cerveza.jpg&lt;br&gt;" style="text;html=1;strokeColor=none;fillColor=none;align=center;verticalAlign=middle;whiteSpace=wrap;rounded=0;" vertex="1" parent="1">
          <mxGeometry x="485" y="902.5" width="70" height="30" as="geometry" />
        </mxCell>
        <mxCell id="WlOlDgsRH5CJ9yelDNU_-50" value="Cerveza.jpg&lt;br&gt;" style="text;html=1;strokeColor=none;fillColor=none;align=center;verticalAlign=middle;whiteSpace=wrap;rounded=0;" vertex="1" parent="1">
          <mxGeometry x="678" y="902.5" width="70" height="30" as="geometry" />
        </mxCell>
        <mxCell id="WlOlDgsRH5CJ9yelDNU_-51" value="" style="shape=curlyBracket;whiteSpace=wrap;html=1;rounded=1;flipH=1;labelPosition=right;verticalLabelPosition=middle;align=left;verticalAlign=middle;rotation=90;" vertex="1" parent="1">
          <mxGeometry x="90" y="-3.552713678800501e-15" width="20" height="120" as="geometry" />
        </mxCell>
        <mxCell id="WlOlDgsRH5CJ9yelDNU_-52" value="" style="shape=curlyBracket;whiteSpace=wrap;html=1;rounded=1;flipH=1;labelPosition=right;verticalLabelPosition=middle;align=left;verticalAlign=middle;rotation=90;" vertex="1" parent="1">
          <mxGeometry x="743.5" y="-7.5" width="20" height="135" as="geometry" />
        </mxCell>
        <mxCell id="WlOlDgsRH5CJ9yelDNU_-53" value="" style="shape=curlyBracket;whiteSpace=wrap;html=1;rounded=1;flipH=1;labelPosition=right;verticalLabelPosition=middle;align=left;verticalAlign=middle;rotation=90;" vertex="1" parent="1">
          <mxGeometry x="139.92" y="90" width="20" height="120" as="geometry" />
        </mxCell>
        <mxCell id="WlOlDgsRH5CJ9yelDNU_-54" value="&lt;font style=&quot;font-size: 14px;&quot;&gt;Redes&lt;/font&gt;" style="text;strokeColor=none;fillColor=none;html=1;fontSize=24;fontStyle=1;verticalAlign=middle;align=center;" vertex="1" parent="1">
          <mxGeometry x="48.50999999999999" y="58.38" width="100" height="40" as="geometry" />
        </mxCell>
        <mxCell id="WlOlDgsRH5CJ9yelDNU_-55" value="&lt;font style=&quot;font-size: 7px;&quot;&gt;Opciones del usuario/Sobre nosotros/LOcales/Variedad/Eventos/etc...&lt;/font&gt;" style="text;strokeColor=none;fillColor=none;html=1;fontSize=24;fontStyle=1;verticalAlign=middle;align=center;" vertex="1" parent="1">
          <mxGeometry x="27.5" y="150" width="200" height="60" as="geometry" />
        </mxCell>
        <mxCell id="WlOlDgsRH5CJ9yelDNU_-56" value="&lt;font style=&quot;font-size: 7px;&quot;&gt;Busqueda/Login/Carrito de compras&lt;/font&gt;" style="text;strokeColor=none;fillColor=none;html=1;fontSize=24;fontStyle=1;verticalAlign=middle;align=center;" vertex="1" parent="1">
          <mxGeometry x="690.93" y="60" width="119.07" height="20" as="geometry" />
        </mxCell>
        <mxCell id="WlOlDgsRH5CJ9yelDNU_-57" value="LOGO" style="text;strokeColor=none;fillColor=none;html=1;fontSize=24;fontStyle=1;verticalAlign=middle;align=center;" vertex="1" parent="1">
          <mxGeometry x="393" y="68.38" width="40" height="20" as="geometry" />
        </mxCell>
        <mxCell id="WlOlDgsRH5CJ9yelDNU_-61" value="" style="ellipse;shape=doubleEllipse;whiteSpace=wrap;html=1;aspect=fixed;" vertex="1" parent="1">
          <mxGeometry x="697" y="9.38" width="30.62" height="30.62" as="geometry" />
        </mxCell>
        <mxCell id="WlOlDgsRH5CJ9yelDNU_-62" value="" style="html=1;verticalLabelPosition=bottom;align=center;labelBackgroundColor=#ffffff;verticalAlign=top;strokeWidth=2;shadow=0;dashed=0;shape=mxgraph.ios7.icons.looking_glass;" vertex="1" parent="1">
          <mxGeometry x="707.55" y="19.31" width="10.91" height="11.38" as="geometry" />
        </mxCell>
        <mxCell id="WlOlDgsRH5CJ9yelDNU_-63" value="" style="rounded=0;whiteSpace=wrap;html=1;" vertex="1" parent="1">
          <mxGeometry x="38.5" y="1200" width="241.49" height="400" as="geometry" />
        </mxCell>
        <mxCell id="WlOlDgsRH5CJ9yelDNU_-64" value="" style="rounded=1;whiteSpace=wrap;html=1;" vertex="1" parent="1">
          <mxGeometry x="240" y="1220" width="30" height="30" as="geometry" />
        </mxCell>
        <mxCell id="WlOlDgsRH5CJ9yelDNU_-65" value="" style="line;strokeWidth=2;html=1;" vertex="1" parent="1">
          <mxGeometry x="242.5" y="1220" width="25" height="10" as="geometry" />
        </mxCell>
        <mxCell id="WlOlDgsRH5CJ9yelDNU_-66" value="" style="line;strokeWidth=2;html=1;" vertex="1" parent="1">
          <mxGeometry x="242.5" y="1240" width="25" height="10" as="geometry" />
        </mxCell>
        <mxCell id="WlOlDgsRH5CJ9yelDNU_-67" value="" style="line;strokeWidth=2;html=1;" vertex="1" parent="1">
          <mxGeometry x="242.5" y="1230" width="25" height="10" as="geometry" />
        </mxCell>
        <mxCell id="WlOlDgsRH5CJ9yelDNU_-69" value="" style="ellipse;whiteSpace=wrap;html=1;aspect=fixed;" vertex="1" parent="1">
          <mxGeometry x="44" y="1210" width="40" height="40" as="geometry" />
        </mxCell>
        <mxCell id="WlOlDgsRH5CJ9yelDNU_-71" value="" style="rounded=1;whiteSpace=wrap;html=1;" vertex="1" parent="1">
          <mxGeometry x="107.5" y="1225" width="120" height="10" as="geometry" />
        </mxCell>
        <mxCell id="WlOlDgsRH5CJ9yelDNU_-72" value="" style="line;strokeWidth=2;html=1;rotation=-90;" vertex="1" parent="1">
          <mxGeometry x="-20.08" y="1350" width="160" height="10" as="geometry" />
        </mxCell>
        <mxCell id="WlOlDgsRH5CJ9yelDNU_-73" value="" style="line;strokeWidth=2;html=1;" vertex="1" parent="1">
          <mxGeometry x="40" y="1560" width="240" height="10" as="geometry" />
        </mxCell>
        <mxCell id="WlOlDgsRH5CJ9yelDNU_-74" value="" style="rounded=1;whiteSpace=wrap;html=1;" vertex="1" parent="1">
          <mxGeometry x="65" y="1470" width="50" height="70" as="geometry" />
        </mxCell>
        <mxCell id="WlOlDgsRH5CJ9yelDNU_-75" value="" style="rounded=1;whiteSpace=wrap;html=1;" vertex="1" parent="1">
          <mxGeometry x="134.25" y="1470" width="50" height="70" as="geometry" />
        </mxCell>
        <mxCell id="WlOlDgsRH5CJ9yelDNU_-76" value="" style="rounded=1;whiteSpace=wrap;html=1;" vertex="1" parent="1">
          <mxGeometry x="205" y="1470" width="50" height="70" as="geometry" />
        </mxCell>
        <mxCell id="WlOlDgsRH5CJ9yelDNU_-77" value="" style="line;strokeWidth=2;html=1;perimeter=backbonePerimeter;points=[];outlineConnect=0;" vertex="1" parent="1">
          <mxGeometry x="59.53" y="1280" width="20" height="10" as="geometry" />
        </mxCell>
        <mxCell id="WlOlDgsRH5CJ9yelDNU_-78" value="" style="line;strokeWidth=2;html=1;perimeter=backbonePerimeter;points=[];outlineConnect=0;" vertex="1" parent="1">
          <mxGeometry x="59.53" y="1325" width="20" height="10" as="geometry" />
        </mxCell>
        <mxCell id="WlOlDgsRH5CJ9yelDNU_-79" value="" style="line;strokeWidth=2;html=1;perimeter=backbonePerimeter;points=[];outlineConnect=0;" vertex="1" parent="1">
          <mxGeometry x="59.53" y="1370" width="20" height="10" as="geometry" />
        </mxCell>
        <mxCell id="WlOlDgsRH5CJ9yelDNU_-80" value="" style="line;strokeWidth=2;html=1;perimeter=backbonePerimeter;points=[];outlineConnect=0;" vertex="1" parent="1">
          <mxGeometry x="59.53" y="1415" width="20" height="10" as="geometry" />
        </mxCell>
        <mxCell id="WlOlDgsRH5CJ9yelDNU_-83" value="" style="rounded=1;whiteSpace=wrap;html=1;" vertex="1" parent="1">
          <mxGeometry x="82.5" y="1265" width="187.5" height="40" as="geometry" />
        </mxCell>
        <mxCell id="WlOlDgsRH5CJ9yelDNU_-84" value="" style="rounded=1;whiteSpace=wrap;html=1;" vertex="1" parent="1">
          <mxGeometry x="82.5" y="1310" width="187.5" height="40" as="geometry" />
        </mxCell>
        <mxCell id="WlOlDgsRH5CJ9yelDNU_-85" value="" style="rounded=1;whiteSpace=wrap;html=1;" vertex="1" parent="1">
          <mxGeometry x="82.5" y="1355" width="187.5" height="40" as="geometry" />
        </mxCell>
        <mxCell id="WlOlDgsRH5CJ9yelDNU_-86" value="" style="rounded=1;whiteSpace=wrap;html=1;" vertex="1" parent="1">
          <mxGeometry x="84" y="1400" width="187.5" height="40" as="geometry" />
        </mxCell>
        <mxCell id="WlOlDgsRH5CJ9yelDNU_-87" value="" style="ellipse;whiteSpace=wrap;html=1;aspect=fixed;" vertex="1" parent="1">
          <mxGeometry x="231.5" y="1268.75" width="32.5" height="32.5" as="geometry" />
        </mxCell>
        <mxCell id="WlOlDgsRH5CJ9yelDNU_-88" value="" style="ellipse;whiteSpace=wrap;html=1;aspect=fixed;" vertex="1" parent="1">
          <mxGeometry x="233.75" y="1313.75" width="32.5" height="32.5" as="geometry" />
        </mxCell>
        <mxCell id="WlOlDgsRH5CJ9yelDNU_-89" value="" style="ellipse;whiteSpace=wrap;html=1;aspect=fixed;" vertex="1" parent="1">
          <mxGeometry x="233.75" y="1358.75" width="32.5" height="32.5" as="geometry" />
        </mxCell>
        <mxCell id="WlOlDgsRH5CJ9yelDNU_-90" value="" style="ellipse;whiteSpace=wrap;html=1;aspect=fixed;" vertex="1" parent="1">
          <mxGeometry x="233.75" y="1403.75" width="32.5" height="32.5" as="geometry" />
        </mxCell>
        <mxCell id="WlOlDgsRH5CJ9yelDNU_-91" value="&lt;font data-font-src=&quot;https://fonts.googleapis.com/css?family=IMPACT&quot; face=&quot;IMPACT&quot;&gt;M A S&amp;nbsp; &amp;nbsp;V E N D I D A S&lt;/font&gt;" style="text;html=1;strokeColor=none;fillColor=none;align=center;verticalAlign=middle;whiteSpace=wrap;rounded=0;rotation=-90;" vertex="1" parent="1">
          <mxGeometry x="-20" y="1346.25" width="140" as="geometry" />
        </mxCell>
        <mxCell id="WlOlDgsRH5CJ9yelDNU_-93" value="&lt;font face=&quot;IMPACT&quot;&gt;&lt;span style=&quot;font-size: 10px;&quot;&gt;NUESTROS PRODUCTOS&lt;/span&gt;&lt;/font&gt;" style="text;html=1;strokeColor=none;fillColor=none;align=center;verticalAlign=middle;whiteSpace=wrap;rounded=0;" vertex="1" parent="1">
          <mxGeometry x="97.5" y="1450" width="130" height="6.25" as="geometry" />
        </mxCell>
        <mxCell id="WlOlDgsRH5CJ9yelDNU_-94" value="" style="rounded=1;whiteSpace=wrap;html=1;" vertex="1" parent="1">
          <mxGeometry x="70" y="1475" width="40" height="60" as="geometry" />
        </mxCell>
        <mxCell id="WlOlDgsRH5CJ9yelDNU_-95" value="" style="rounded=1;whiteSpace=wrap;html=1;" vertex="1" parent="1">
          <mxGeometry x="139.25" y="1475" width="40" height="60" as="geometry" />
        </mxCell>
        <mxCell id="WlOlDgsRH5CJ9yelDNU_-96" value="" style="rounded=1;whiteSpace=wrap;html=1;" vertex="1" parent="1">
          <mxGeometry x="210" y="1475" width="40" height="60" as="geometry" />
        </mxCell>
        <mxCell id="WlOlDgsRH5CJ9yelDNU_-97" value="&lt;font style=&quot;font-size: 8px;&quot;&gt;Informacion de contacto/Datos legales del local/Ubicacion/Creador de la pag./Etc...&lt;/font&gt;" style="text;html=1;strokeColor=none;fillColor=none;align=center;verticalAlign=middle;whiteSpace=wrap;rounded=0;" vertex="1" parent="1">
          <mxGeometry x="38.01" y="1570" width="231.99" height="20" as="geometry" />
        </mxCell>
        <mxCell id="WlOlDgsRH5CJ9yelDNU_-99" value="&lt;font style=&quot;font-size: 6px;&quot;&gt;Descripcion de la cerveza junto a su foto&lt;/font&gt;" style="text;html=1;strokeColor=none;fillColor=none;align=center;verticalAlign=middle;whiteSpace=wrap;rounded=0;" vertex="1" parent="1">
          <mxGeometry x="97.5" y="1268.75" width="130" height="30" as="geometry" />
        </mxCell>
        <mxCell id="WlOlDgsRH5CJ9yelDNU_-100" value="&lt;font style=&quot;font-size: 6px;&quot;&gt;Descripcion de la cerveza junto a su foto&lt;/font&gt;" style="text;html=1;strokeColor=none;fillColor=none;align=center;verticalAlign=middle;whiteSpace=wrap;rounded=0;" vertex="1" parent="1">
          <mxGeometry x="97.5" y="1313.75" width="130" height="30" as="geometry" />
        </mxCell>
        <mxCell id="WlOlDgsRH5CJ9yelDNU_-101" value="&lt;font style=&quot;font-size: 6px;&quot;&gt;Descripcion de la cerveza junto a su foto&lt;/font&gt;" style="text;html=1;strokeColor=none;fillColor=none;align=center;verticalAlign=middle;whiteSpace=wrap;rounded=0;" vertex="1" parent="1">
          <mxGeometry x="100" y="1358.75" width="130" height="30" as="geometry" />
        </mxCell>
        <mxCell id="WlOlDgsRH5CJ9yelDNU_-102" value="&lt;font style=&quot;font-size: 6px;&quot;&gt;Descripcion de la cerveza junto a su foto&lt;/font&gt;" style="text;html=1;strokeColor=none;fillColor=none;align=center;verticalAlign=middle;whiteSpace=wrap;rounded=0;" vertex="1" parent="1">
          <mxGeometry x="100" y="1403.75" width="130" height="30" as="geometry" />
        </mxCell>
        <mxCell id="WlOlDgsRH5CJ9yelDNU_-103" value="&lt;font style=&quot;font-size: 6px;&quot;&gt;Descripcion de la cerveza junto a su foto&lt;/font&gt;" style="text;html=1;strokeColor=none;fillColor=none;align=center;verticalAlign=middle;whiteSpace=wrap;rounded=0;" vertex="1" parent="1">
          <mxGeometry x="69.53" y="1495" width="40.47" height="20" as="geometry" />
        </mxCell>
        <mxCell id="WlOlDgsRH5CJ9yelDNU_-104" value="&lt;font style=&quot;font-size: 6px;&quot;&gt;Descripcion de la cerveza junto a su foto&lt;/font&gt;" style="text;html=1;strokeColor=none;fillColor=none;align=center;verticalAlign=middle;whiteSpace=wrap;rounded=0;" vertex="1" parent="1">
          <mxGeometry x="138.78" y="1495" width="40.47" height="20" as="geometry" />
        </mxCell>
        <mxCell id="WlOlDgsRH5CJ9yelDNU_-105" value="&lt;font style=&quot;font-size: 6px;&quot;&gt;Descripcion de la cerveza junto a su foto&lt;/font&gt;" style="text;html=1;strokeColor=none;fillColor=none;align=center;verticalAlign=middle;whiteSpace=wrap;rounded=0;" vertex="1" parent="1">
          <mxGeometry x="209.76" y="1490" width="40.47" height="20" as="geometry" />
        </mxCell>
        <mxCell id="WlOlDgsRH5CJ9yelDNU_-106" value="&lt;font style=&quot;font-size: 6px;&quot;&gt;Logo&lt;/font&gt;" style="text;html=1;strokeColor=none;fillColor=none;align=center;verticalAlign=middle;whiteSpace=wrap;rounded=0;" vertex="1" parent="1">
          <mxGeometry x="48.51" y="1217.5" width="26" height="25" as="geometry" />
        </mxCell>
        <mxCell id="WlOlDgsRH5CJ9yelDNU_-107" value="&lt;font style=&quot;font-size: 6px;&quot;&gt;Busqueda&lt;/font&gt;" style="text;html=1;strokeColor=none;fillColor=none;align=center;verticalAlign=middle;whiteSpace=wrap;rounded=0;" vertex="1" parent="1">
          <mxGeometry x="148.51" y="1215" width="37.5" height="25" as="geometry" />
        </mxCell>
        <mxCell id="WlOlDgsRH5CJ9yelDNU_-108" value="&lt;font style=&quot;font-size: 6px;&quot;&gt;Login/Carro de compra/Varias opciones mas&lt;/font&gt;" style="text;html=1;strokeColor=none;fillColor=none;align=center;verticalAlign=middle;whiteSpace=wrap;rounded=0;" vertex="1" parent="1">
          <mxGeometry x="100" y="1235" width="140" height="30" as="geometry" />
        </mxCell>
        <mxCell id="WlOlDgsRH5CJ9yelDNU_-111" value="" style="endArrow=classic;html=1;rounded=0;" edge="1" parent="1">
          <mxGeometry width="50" height="50" relative="1" as="geometry">
            <mxPoint x="227.5" y="1250" as="sourcePoint" />
            <mxPoint x="237.5" y="1240" as="targetPoint" />
          </mxGeometry>
        </mxCell>
      </root>
    </mxGraphModel>
  </diagram>
  <diagram id="GN0figftHzSPaXeOBXSv" name="detalle del producto">
    <mxGraphModel grid="1" page="1" gridSize="10" guides="1" tooltips="1" connect="1" arrows="1" fold="1" pageScale="1" pageWidth="827" pageHeight="1169" math="0" shadow="0">
      <root>
        <mxCell id="0" />
        <mxCell id="1" parent="0" />
      </root>
    </mxGraphModel>
  </diagram>
  <diagram id="GStrGtrF7gEP_2mKZS7F" name="carrito de compra">
    <mxGraphModel grid="1" page="1" gridSize="10" guides="1" tooltips="1" connect="1" arrows="1" fold="1" pageScale="1" pageWidth="827" pageHeight="1169" math="0" shadow="0">
      <root>
        <mxCell id="0" />
        <mxCell id="1" parent="0" />
      </root>
    </mxGraphModel>
  </diagram>
  <diagram id="iYFI5T9h3kwXG4qOXrd5" name="formulario de registro">
    <mxGraphModel grid="1" page="1" gridSize="10" guides="1" tooltips="1" connect="1" arrows="1" fold="1" pageScale="1" pageWidth="827" pageHeight="1169" math="0" shadow="0">
      <root>
        <mxCell id="0" />
        <mxCell id="1" parent="0" />
      </root>
    </mxGraphModel>
  </diagram>
  <diagram id="cQ1SHv5Pxuu3ac1E3mVm" name="formulario de login">
    <mxGraphModel grid="1" page="1" gridSize="10" guides="1" tooltips="1" connect="1" arrows="1" fold="1" pageScale="1" pageWidth="827" pageHeight="1169" math="0" shadow="0">
      <root>
        <mxCell id="0" />
        <mxCell id="1" parent="0" />
      </root>
    </mxGraphModel>
  </diagram>
</mxfile>
